# xmcd
#
# Track frame offsets: 
#        150
#        27080
#        58900
#        81522
#        107517
#        145010
#        171297
#        192115
#        214075
#        244922
#
# Disc length: 3908 seconds
#
# Revision: 1
# Processed by: cddbd v1.5.1PL2 Copyright (c) Steve Scherf et al.
# Submitted via: ExactAudioCopy v0.95b3
#
DISCID=8a0f420a
DTITLE=Barry White - The Icon Is Love
DYEAR=1994
DGENRE=R&B
TTITLE0=Practice What You Preach
TTITLE1=There It Is
TTITLE2=I Only Want To Be With You
TTITLE3=The Time Is Right
TTITLE4=Baby's Home
TTITLE5=Come On
TTITLE6=Love Is The Icon
TTITLE7=Sexy Undercover
TTITLE8=Don't You Want To Know?
TTITLE9=Whatever We Had, We Had
EXTD=
EXTT0=
EXTT1=
EXTT2=
EXTT3=
EXTT4=
EXTT5=
EXTT6=
EXTT7=
EXTT8=
EXTT9=
PLAYORDER=
